# xmcd CD database file
#
# Track frame offsets:
#	150
#	19185
#	35574
#	40324
#	58959
#	67896
#	70438
#	74122
#	94691
#	105194
#	113816
#	124280
#	135609
#	143794
#	153694
#	162272
#	172795
#	182890
#	189295
#	197975
#	208707
#	225050
#	231242
#	236115
#	244170
#	247610
#
# Disc length: 3470 seconds
#
# Revision: 2
# Processed by: cddbd v1.5.2PL0 Copyright (c) Steve Scherf et al.
# Submitted via: CDex 1.51
#
DISCID=720d8c1a
DTITLE=Alessandro Scarlatti - La Giuditta  (fin 2ème partie) - Stabat Mater
DYEAR=1900
DGENRE=Classique
TTITLE0=2ème PARTIE - Recitativo e scena - Gran donna - Rec - Troppo funesto - Rec - Non so per qual cagione
TTITLE1=Aria - La tua desta - Recitativo - Ma,che più tardo
TTITLE2=Recitativo - Spunta già l'alba - Aria - Traditor
TTITLE3=Recitativo - Purtroppo anch'io - Aria - Addio, cara libertà
TTITLE4=Recitativo - Signor, tua debol fede - Aria - Sento che questo core
TTITLE5=Recitativo - Ozia, Duce
TTITLE6=Recitativo - Perdona, perdona - Recitativo - Prendi, calpesta
TTITLE7=Finale - Tutti - Alle palme-Aria - Combattutta navicella-Tutti - Tanto verace-Aria - Superata la costanza
TTITLE8=Stabat Mater - Stabat mater dolorosa  [Pàl Németh, Caoella Savaria]
TTITLE9=Stabat Mater - Cujus animam gementem
TTITLE10=Stabat Mater - O quam tristis
TTITLE11=Stabat Mater - Quae moerebat et dolebat
TTITLE12=Stabat Mater - Quis est homo, qui non fleret
TTITLE13=Stabat Mater - Quis non posset contristari
TTITLE14=Stabat Mater - Pro Peccatis suae gentis
TTITLE15=Stabat Mater - Vidit suum dulcem Natum
TTITLE16=Stabat Mater - Eja, Mater, fons amoris
TTITLE17=Stabat Mater - Sancta Mater, istud agas
TTITLE18=Stabat Mater - Fac ut ardea cor meum
TTITLE19=Stabat Mater - Tui nati vulnerati
TTITLE20=Stabat Mater - Juxta crucem tecum tecum stare
TTITLE21=Stabat Mater - Virgo virginum praeclara
TTITLE22=Stabat Mater - Fac ut protem Chrirsti mortem
TTITLE23=Stabat Mater - Inflammatus et accensus
TTITLE24=Stabat Mater - Fac me Cruce custodiri
TTITLE25=Stabat Mater - Quando corpus Morietur - Amen
EXTD=
EXTT0=
EXTT1=
EXTT2=
EXTT3=
EXTT4=
EXTT5=
EXTT6=
EXTT7=
EXTT8=
EXTT9=
EXTT10=
EXTT11=
EXTT12=
EXTT13=
EXTT14=
EXTT15=
EXTT16=
EXTT17=
EXTT18=
EXTT19=
EXTT20=
EXTT21=
EXTT22=
EXTT23=
EXTT24=
EXTT25=
PLAYORDER=
